#!OML:ASF F:\VICON\USERDATA\INSTALL\Justin_Nancy\Justin_Nancy.ASF
:FULLY-SPECIFIED
:DEGREES
291
root 0.580646 17.4012 -8.60092 2.31983 -2.5854 -3.9902
lowerback 7.176 1.4628 3.77709
upperback 0.0872456 2.35202 2.28626
thorax -3.88052 1.11563 0.00409091
lowerneck -17.1573 -4.52758 -9.78662
upperneck 19.416 -5.00166 6.06917
head 9.35971 -2.40363 3.05372
rclavicle 1.87355e-014 -1.51076e-014
rhumerus -28.287 -9.60305 -80.9156
rradius 31.0906
rwrist 9.41567
rhand -17.1755 11.6546
rfingers 7.12502
rthumb 9.06602 -18.1306
lclavicle 1.87355e-014 -1.51076e-014
lhumerus -35.1982 9.53659 81.1058
lradius 24.47
lwrist -12.1026
lhand -11.2961 27.6768
lfingers 7.12502
lthumb 14.7353 57.133
rfemur 0.828347 5.09719 30.5253
rtibia 19.3379
rfoot -15.2031 -7.79168
rtoes -4.24843
lfemur -33.495 -0.172189 -14.7728
ltibia 45.051
lfoot -8.79667 7.51507
ltoes -1.3636
292
root 0.578572 17.3897 -8.42648 2.50564 -2.77867 -4.21131
lowerback 7.09788 1.55297 3.93874
upperback 0.0498469 2.48394 2.32468
thorax -3.86722 1.1782 -0.0577203
lowerneck -17.2287 -4.50624 -9.65158
upperneck 19.2662 -4.97523 5.98073
head 9.31202 -2.3884 3.00178
rclavicle 1.35671e-014 3.10104e-014
rhumerus -28.0096 -9.01358 -81.1073
rradius 31.5473
rwrist 8.31396
rhand -15.8311 11.917
rfingers 7.12502
rthumb 10.3631 -17.8076
lclavicle 1.35671e-014 3.10104e-014
lhumerus -35.478 10.2235 80.7415
lradius 24.123
lwrist -12.5442
lhand -11.5716 27.0921
lfingers 7.12502
lthumb 14.4698 56.5676
rfemur 1.72467 5.15502 30.7813
rtibia 18.4683
rfoot -15.1786 -7.80303
rtoes -4.92041
lfemur -33.8046 -0.348235 -14.4198
ltibia 42.5236
lfoot -8.34374 7.81291
ltoes -4.23874
293
root 0.580426 17.3735 -8.24581 2.66589 -2.90211 -4.39741
lowerback 6.89704 1.68254 4.17852
upperback 0.0911969 2.66067 2.30261
thorax -3.69474 1.26466 -0.224086
lowerneck -17.3396 -4.5853 -9.63992
upperneck 19.1678 -5.09197 6.06215
head 9.30991 -2.43029 3.00987
rclavicle -1.59028e-014 -2.78299e-015
rhumerus -27.665 -8.56721 -81.3064
rradius 32.0784
rwrist 7.14944
rhand -11.1178 6.1313
rfingers 7.12502
rthumb 14.9071 -23.3123
lclavicle -1.59028e-014 -2.78299e-015
lhumerus -35.5431 10.7545 80.4084
lradius 23.7444
lwrist -13.2746
lhand -11.0395 27.0687
lfingers 7.12502
lthumb 14.9825 56.5067
rfemur 2.69021 5.14012 30.9792
rtibia 17.6374
rfoot -15.1773 -7.76539
rtoes -4.80972
lfemur -33.9999 -0.688308 -14.0669
ltibia 39.9409
lfoot -7.68824 7.96351
ltoes -5.63969
294
root 0.583618 17.3569 -8.06131 2.89202 -3.01879 -4.49356
lowerback 6.66762 1.79643 4.26383
upperback 0.0508227 2.80695 2.31149
thorax -3.59954 1.33729 -0.268735
lowerneck -17.4185 -4.58669 -9.64668
upperneck 19.1302 -5.09729 6.12658
head 9.31349 -2.42454 3.03156
rclavicle 2.87741e-014 2.0276e-014
rhumerus -27.4123 -8.14361 -81.3103
rradius 32.6484
rwrist 6.97876
rhand -15.4823 12.0746
rfingers 7.12502
rthumb 10.6995 -17.633
lclavicle 2.87741e-014 2.0276e-014
lhumerus -35.6061 11.4712 80.0877
lradius 23.1281
lwrist -14.0703
lhand -10.8871 26.8883
lfingers 7.12502
lthumb 15.1292 56.3153
rfemur 3.57965 4.99994 31.0458
rtibia 16.8606
rfoot -15.2972 -7.86365
rtoes -4.70928
lfemur -34.2034 -1.07223 -13.7985
ltibia 37.3387
lfoot -6.85456 7.95234
ltoes -5.30453
295
root 0.589681 17.3405 -7.8839 3.09718 -3.19929 -4.4562
lowerback 6.60721 1.94017 4.28968
upperback 0.0183107 2.99496 2.233
thorax -3.58739 1.42937 -0.379652
lowerneck -17.7045 -4.65347 -9.72722
upperneck 19.2407 -5.17807 6.27609
head 9.41759 -2.44741 3.08386
rclavicle -6.41081e-015 3.57812e-015
rhumerus -26.9212 -7.82252 -81.3314
rradius 32.7968
rwrist 6.71365
rhand -16.8911 14.4995
rfingers 7.12502
rthumb 9.34044 -15.2736
lclavicle -6.41081e-015 3.57812e-015
lhumerus -35.5048 12.1592 79.763
lradius 22.312
lwrist -14.5582
lhand -11.3275 26.489
lfingers 7.12502
lthumb 14.7049 55.9475
rfemur 4.42377 4.76548 30.9237
rtibia 16.1119
rfoot -15.3836 -7.78389
rtoes -4.40106
lfemur -34.3156 -1.57924 -13.6172
ltibia 34.7433
lfoot -6.11196 7.90756
ltoes -5.76697
296
root 0.596307 17.3234 -7.70429 3.23813 -3.41722 -4.46525
lowerback 6.59595 2.05533 4.34959
upperback -0.0387006 3.15312 2.191
thorax -3.62907 1.50495 -0.471372
lowerneck -17.7927 -4.65936 -9.81512
upperneck 19.3425 -5.18864 6.41217
head 9.4765 -2.44302 3.14496
rclavicle -6.4605e-015 5.96354e-015
rhumerus -26.492 -7.46684 -81.3829
rradius 32.9609
rwrist 6.18216
rhand -16.9559 14.8422
rfingers 7.12502
rthumb 9.2779 -14.9336
lclavicle -6.4605e-015 5.96354e-015
lhumerus -35.8801 12.605 79.4637
lradius 22.0509
lwrist -14.5443
lhand -11.3481 27.1175
lfingers 7.12502
lthumb 14.6851 56.5774
rfemur 5.26852 4.60479 30.8578
rtibia 15.5405
rfoot -15.6835 -7.66632
rtoes -3.49292
lfemur -34.2732 -1.9945 -13.3993
ltibia 32.1516
lfoot -5.64023 7.74619
ltoes -7.82561
297
root 0.596846 17.3137 -7.51685 3.22473 -3.63863 -4.67449
lowerback 6.71109 2.10779 4.49312
upperback -0.133294 3.24862 2.26225
thorax -3.7851 1.5459 -0.493258
lowerneck -17.7372 -4.60015 -9.80873
upperneck 19.3939 -5.10264 6.3557
head 9.47485 -2.41023 3.13744
rclavicle -1.09829e-014 1.03368e-014
rhumerus -26.2867 -7.09475 -81.3982
rradius 33.2439
rwrist 6.21945
rhand -16.9892 14.1178
rfingers 7.12502
rthumb 9.24573 -15.6594
lclavicle -1.09829e-014 1.03368e-014
lhumerus -36.5667 12.845 79.2359
lradius 22.0674
lwrist -14.2796
lhand -10.7792 28.2053
lfingers 7.12502
lthumb 15.2332 57.6244
rfemur 6.27783 4.53075 31.0906
rtibia 14.9276
rfoot -15.8351 -7.44612
rtoes -2.3683
lfemur -34.1336 -2.15581 -12.9821
ltibia 29.7201
lfoot -5.32835 7.41158
ltoes -9.50645
298
root 0.598906 17.3022 -7.32341 3.15823 -3.93616 -4.66804
lowerback 6.77468 2.21504 4.43941
upperback -0.127905 3.39178 2.28388
thorax -3.81405 1.61751 -0.457116
lowerneck -17.7629 -4.62908 -9.84483
upperneck 19.3255 -5.1214 6.33047
head 9.45786 -2.42344 3.1307
rclavicle -2.59414e-014 -1.19271e-015
rhumerus -26.049 -6.71173 -81.3647
rradius 33.5825
rwrist 6.09127
rhand -16.5882 12.7963
rfingers 7.12502
rthumb 9.63271 -16.9635
lclavicle -2.59414e-014 -1.19271e-015
lhumerus -36.8582 13.6726 78.8199
lradius 21.6388
lwrist -14.8985
lhand -10.7464 28.1663
lfingers 7.12502
lthumb 15.2648 57.5831
rfemur 7.37218 4.36976 31.06
rtibia 14.1637
rfoot -15.3609 -7.27705
rtoes -2.5213
lfemur -33.9777 -2.67389 -12.6912
ltibia 27.5614
lfoot -5.41223 7.74175
ltoes -10.2031
299
root 0.609058 17.2737 -7.12792 3.31861 -4.22555 -4.70039
lowerback 6.489 2.34821 4.50884
upperback -0.0944119 3.55288 2.25024
thorax -3.60622 1.70071 -0.530875
lowerneck -17.9237 -4.68899 -9.78558
upperneck 19.3646 -5.20038 6.3032
head 9.50548 -2.45607 3.09867
rclavicle -1.99282e-014 -2.10712e-014
rhumerus -25.6365 -6.46713 -81.3478
rradius 33.7903
rwrist 5.83359
rhand -16.129 12.2047
rfingers 7.12502
rthumb 10.0757 -17.5341
lclavicle -1.99282e-014 -2.10712e-014
lhumerus -36.8652 14.6073 78.3388
lradius 21.0162
lwrist -15.9032
lhand -10.6627 28.0775
lfingers 7.12502
lthumb 15.3454 57.4881
rfemur 8.29148 4.1881 30.981
rtibia 13.5481
rfoot -14.8581 -7.18637
rtoes -3.69418
lfemur -34.034 -3.25265 -12.3496
ltibia 25.6424
lfoot -5.86265 8.11507
ltoes -9.60823
300
root 0.616906 17.2584 -6.93579 3.49525 -4.44307 -4.88989
lowerback 6.18445 2.46175 4.67298
upperback -0.0989571 3.69773 2.29299
thorax -3.42687 1.77401 -0.57537
lowerneck -17.7754 -4.70696 -9.81253
upperneck 19.1407 -5.23812 6.36624
head 9.40611 -2.46976 3.11918
rclavicle 3.38431e-014 -2.78299e-015
rhumerus -25.4328 -6.32985 -81.2813
rradius 34.1281
rwrist 5.8504
rhand -16.0447 12.4147
rfingers 7.12502
rthumb 10.1571 -17.3201
lclavicle 3.38431e-014 -2.78299e-015
lhumerus -37.1398 15.1794 78.0421
lradius 20.7057
lwrist -16.2512
lhand -10.4417 28.2787
lfingers 7.12502
lthumb 15.5583 57.6729
rfemur 9.07617 4.17407 31.0922
rtibia 13.0503
rfoot -14.8415 -6.93868
rtoes -3.49507
lfemur -34.0726 -3.97251 -11.7772
ltibia 24.0159
lfoot -6.67501 8.41356
ltoes -8.31536
301
root 0.623646 17.246 -6.75011 3.46643 -4.67871 -4.92076
lowerback 6.35922 2.55798 4.72231
upperback -0.169712 3.84257 2.23798
thorax -3.58559 1.84 -0.682424
lowerneck -17.8461 -4.72439 -9.61745
upperneck 19.2647 -5.29478 6.2767
head 9.45877 -2.49107 3.04802
rclavicle -1.39646e-014 2.34566e-014
rhumerus -25.3518 -6.12651 -81.3292
rradius 34.4137
rwrist 5.57049
rhand -16.2738 12.7763
rfingers 7.12502
rthumb 9.93603 -16.9692
lclavicle -1.39646e-014 2.34566e-014
lhumerus -37.4778 15.6479 77.6074
lradius 20.3521
lwrist -16.5557
lhand -10.6381 27.6887
lfingers 7.12502
lthumb 15.3691 57.0975
rfemur 10.0424 4.42909 31.1138
rtibia 12.4573
rfoot -14.8365 -6.73721
rtoes -2.65978
lfemur -34.0658 -4.70811 -11.394
ltibia 22.8435
lfoot -7.5983 9.00863
ltoes -6.75091
302
root 0.634508 17.2179 -6.55956 3.46392 -4.98647 -4.78875
lowerback 6.41395 2.71874 4.62717
upperback -0.222198 4.05138 2.12394
thorax -3.65979 1.94207 -0.76972
lowerneck -17.8379 -4.82509 -9.50008
upperneck 19.4567 -5.48292 6.29911
head 9.53799 -2.56853 3.01176
rclavicle -5.69021e-015 -1.70955e-014
rhumerus -25.2427 -6.19438 -81.3054
rradius 34.587
rwrist 5.372
rhand -16.353 12.6798
rfingers 7.12502
rthumb 9.85958 -17.0693
lclavicle -5.69021e-015 -1.70955e-014
lhumerus -37.6669 16.2633 77.0699
lradius 19.8218
lwrist -17.2485
lhand -11.105 27.0113
lfingers 7.12502
lthumb 14.9194 56.454
rfemur 10.9832 4.67787 30.8918
rtibia 12.1246
rfoot -14.6333 -6.82093
rtoes -4.08618
lfemur -34.0924 -5.32341 -11.2612
ltibia 21.9395
lfoot -8.24688 9.78064
ltoes -6.15644
303
root 0.647663 17.1946 -6.35807 3.48454 -5.22961 -4.47893
lowerback 6.14832 2.83 4.34581
upperback -0.15867 4.1552 2.01957
thorax -3.45148 2.00364 -0.713491
lowerneck -17.8809 -4.82798 -9.36524
upperneck 19.3889 -5.49377 6.19683
head 9.51574 -2.57359 2.95076
rclavicle -1.50579e-014 -3.06128e-014
rhumerus -24.9992 -6.23176 -81.222
rradius 34.9268
rwrist 5.37122
rhand -15.9951 12.2157
rfingers 7.12502
rthumb 10.2049 -17.5168
lclavicle -1.50579e-014 -3.06128e-014
lhumerus -37.9244 16.9916 76.6443
lradius 19.5232
lwrist -17.9247
lhand -11.1284 26.6796
lfingers 7.12502
lthumb 14.8968 56.124
rfemur 11.7796 4.71042 30.3884
rtibia 12.072
rfoot -14.5604 -6.71573
rtoes -5.65797
lfemur -33.9825 -5.56099 -11.5761
ltibia 21.2695
lfoot -8.64406 10.2118
ltoes -6.78955
